<?xml version="1.0" standalone="no"?>
<!DOCTYPE svg PUBLIC "-//W3C//DTD SVG 20010904//EN"
 "http://www.w3.org/TR/2001/REC-SVG-20010904/DTD/svg10.dtd">
<svg version="1.0" xmlns="http://www.w3.org/2000/svg"
 width="300.000000pt" height="126.000000pt" viewBox="0 0 300.000000 126.000000"
 preserveAspectRatio="xMidYMid meet">
<metadata>
Created by potrace 1.10, written by Peter Selinger 2001-2011
</metadata>
<g transform="translate(0.000000,126.000000) scale(0.100000,-0.100000)"
fill="#000000" stroke="none">
<path d="M2051 1108 c-11 -29 -26 -74 -32 -99 l-12 -46 -79 -23 c-82 -24 -113
-50 -88 -74 9 -8 16 -6 28 9 15 17 111 59 119 51 1 -1 -3 -30 -10 -64 -11 -55
-20 -70 -66 -117 -50 -51 -86 -74 -97 -62 -5 5 6 54 21 90 5 13 2 17 -13 17
-15 0 -22 -9 -27 -31 -6 -27 -78 -108 -95 -109 -3 0 -4 29 -2 65 4 55 2 65
-12 65 -9 0 -25 -18 -37 -43 -23 -48 -120 -127 -156 -127 -18 0 -22 6 -25 37
-3 36 -5 37 -42 40 -49 3 -89 -24 -116 -77 -24 -47 -25 -76 -5 -84 25 -9 60
10 97 54 27 31 37 37 41 26 18 -46 101 -19 172 53 21 23 43 41 47 41 5 0 5
-19 2 -41 -6 -35 -20 -55 -94 -128 -67 -66 -95 -103 -123 -162 -102 -209 25
-297 134 -94 42 76 85 202 98 283 7 44 15 58 52 91 41 36 45 38 53 20 6 -12
19 -19 39 -19 23 0 43 13 85 55 30 30 57 55 59 55 1 0 3 -15 3 -34 0 -40 38
-86 72 -86 30 0 91 37 83 50 -4 6 -14 4 -28 -5 -31 -21 -63 -19 -81 7 -21 30
-20 118 2 192 l18 60 109 33 c61 19 134 41 163 49 34 10 51 19 44 26 -10 10
-92 -11 -92 -24 0 -4 -6 -5 -14 -2 -8 3 -53 -7 -101 -21 -48 -15 -89 -25 -91
-23 -2 3 7 37 21 76 29 82 31 102 11 102 -7 0 -23 -24 -35 -52z m-631 -458 c0
-13 -59 -79 -81 -91 -32 -17 -23 17 17 61 34 38 64 52 64 30z m230 -85 c0 -23
-49 -174 -74 -230 -34 -74 -89 -145 -112 -145 -22 0 -36 39 -29 79 14 75 67
164 146 245 49 50 69 65 69 51z"/>
<path d="M2785 989 c-71 -22 -143 -44 -160 -48 -16 -5 -75 -21 -130 -36 -55
-15 -106 -30 -115 -35 -8 -4 -31 -10 -51 -14 -21 -4 -42 -13 -49 -21 -10 -13
-8 -15 15 -15 42 0 630 182 650 201 18 17 -29 8 -160 -32z"/>
<path d="M1073 942 c-8 -5 -83 -236 -83 -258 0 -2 8 -1 18 2 9 3 5 -1 -9 -10
-17 -10 -32 -34 -44 -71 -18 -50 -22 -55 -43 -50 -26 7 -79 -21 -87 -46 -9
-28 -77 -89 -100 -89 -17 0 -24 8 -28 30 -8 40 -37 39 -72 -1 -28 -34 -44 -34
-26 -1 14 26 14 52 0 52 -13 0 -69 -51 -69 -63 0 -5 9 -6 19 -2 17 5 18 2 10
-32 -11 -50 -11 -53 4 -53 6 0 28 20 47 45 39 49 55 55 65 25 9 -27 47 -35 81
-17 25 13 31 13 50 0 20 -13 26 -12 51 1 16 8 34 21 40 28 33 40 91 170 85
191 -1 5 2 6 8 2 6 -4 8 -27 4 -60 -7 -61 4 -85 40 -85 26 0 64 25 54 36 -4 4
-14 1 -23 -6 -8 -7 -22 -10 -30 -6 -25 9 -18 86 25 264 38 155 41 191 13 174z
m-159 -421 c8 -12 -80 -108 -89 -99 -10 10 4 45 32 78 25 30 47 38 57 21z"/>
<path d="M1710 900 c0 -23 4 -24 31 -10 27 15 24 30 -6 30 -18 0 -25 -5 -25
-20z"/>
<path d="M372 829 c-60 -30 -143 -109 -191 -180 -83 -125 -61 -208 49 -184 42
9 39 29 -4 21 -51 -10 -66 0 -66 45 0 65 75 165 184 246 58 43 89 53 102 32
24 -40 8 -159 -45 -331 -51 -163 -43 -151 -136 -197 -75 -37 -135 -87 -135
-112 0 -18 41 -49 65 -49 57 0 110 49 156 143 20 42 28 48 78 63 31 10 60 21
65 25 20 18 -4 20 -50 4 -36 -12 -50 -13 -58 -4 -7 8 -8 10 0 6 18 -10 99 267
91 310 -2 13 0 23 4 23 5 0 9 27 9 60 0 47 -4 64 -20 80 -25 25 -45 25 -98 -1z
m-62 -581 c-44 -64 -83 -98 -111 -98 -37 0 -45 16 -23 42 20 21 147 99 153 93
2 -2 -7 -19 -19 -37z"/>
<path d="M2160 790 c0 -13 7 -20 20 -20 13 0 20 7 20 20 0 13 -7 20 -20 20
-13 0 -20 -7 -20 -20z"/>
<path d="M1197 638 c-8 -13 -24 -39 -35 -58 -23 -37 -30 -22 -12 26 12 31 -1
52 -18 31 -7 -8 -13 -28 -15 -45 -2 -18 -7 -35 -10 -39 -4 -3 -7 -24 -7 -45 0
-60 24 -47 67 34 l38 73 41 -3 c28 -2 45 2 54 13 13 15 10 16 -22 10 -27 -5
-37 -3 -41 9 -9 22 -24 20 -40 -6z"/>
</g>
</svg>
